<?xml version="1.0" standalone="no"?>
<!DOCTYPE svg PUBLIC "-//W3C//DTD SVG 20010904//EN"
 "http://www.w3.org/TR/2001/REC-SVG-20010904/DTD/svg10.dtd">
<svg version="1.0" xmlns="http://www.w3.org/2000/svg"
 width="1646.000000pt" height="947.000000pt" viewBox="0 0 1646.000000 947.000000"
 preserveAspectRatio="xMidYMid meet">
<metadata>
Created by potrace 1.16, written by Peter Selinger 2001-2019
</metadata>
<g transform="translate(0.000000,947.000000) scale(0.100000,-0.100000)"
fill="#000000" stroke="none">
<path d="M4700 9463 c-282 -26 -397 -42 -585 -79 -826 -162 -1583 -536 -2219
-1095 -127 -112 -185 -169 -171 -169 4 0 38 9 74 20 204 60 960 177 1411 216
62 6 104 19 245 79 296 126 574 214 874 275 1018 207 2097 42 3000 -459 l106
-58 200 -6 c259 -8 433 -32 679 -93 54 -14 100 -23 103 -21 5 6 -185 186 -297
279 -770 646 -1687 1023 -2695 1108 -108 9 -639 12 -725 3z"/>
<path d="M6065 8595 c6 -3 80 -25 165 -49 258 -75 483 -165 729 -292 143 -73
172 -82 231 -65 22 6 19 10 -40 43 -205 113 -458 224 -709 308 -172 59 -178
60 -281 59 -58 0 -100 -2 -95 -4z"/>
<path d="M3330 8215 c-118 -7 -280 -18 -360 -25 -179 -14 -895 -103 -1045
-130 -284 -50 -540 -150 -833 -324 -558 -333 -839 -818 -791 -1368 24 -287
140 -578 318 -800 62 -79 108 -124 99 -98 -287 797 -200 1328 275 1681 245
182 500 285 1387 554 383 117 619 200 745 262 122 60 465 249 465 256 0 4 -10
6 -22 6 -13 -1 -120 -7 -238 -14z"/>
<path d="M2495 7523 c-147 -574 -317 -904 -680 -1311 -171 -192 -648 -681
-765 -785 -588 -521 -918 -999 -1022 -1481 -33 -151 -33 -438 0 -585 62 -277
196 -538 417 -817 99 -124 412 -438 568 -568 65 -54 120 -97 122 -94 3 3 -36
56 -86 119 -173 218 -341 488 -432 694 -260 586 -224 1095 112 1595 145 216
376 459 701 735 211 180 323 287 438 418 371 421 595 878 683 1391 30 173 37
526 14 691 -9 65 -20 125 -24 133 -5 8 -22 -44 -46 -135z"/>
<path d="M1813 7402 c-34 -10 -65 -20 -69 -24 -7 -8 437 -228 460 -228 11 0
53 97 45 104 -15 14 -345 166 -358 165 -9 0 -44 -8 -78 -17z"/>
<path d="M8955 7092 c-45 -28 -55 -44 -66 -111 -11 -58 -12 -61 -40 -61 -28 0
-29 -2 -29 -50 0 -49 1 -50 30 -50 l30 0 0 -195 0 -195 65 0 65 0 0 195 0 195
60 0 60 0 0 50 0 50 -66 0 -66 0 6 28 c11 43 43 64 88 57 l38 -7 0 50 c0 58
-6 62 -88 62 -38 0 -67 -6 -87 -18z"/>
<path d="M1099 7051 c-24 -21 -42 -41 -39 -44 5 -5 507 -248 727 -353 l112
-53 32 50 c17 27 30 51 28 52 -15 11 -801 387 -808 387 -5 0 -28 -18 -52 -39z"/>
<path d="M3792 7072 c-29 -11 -64 -29 -77 -42 -37 -35 -59 -101 -52 -160 11
-93 47 -123 206 -169 130 -38 168 -70 141 -121 -35 -66 -150 -66 -254 0 l-49
31 -28 -27 c-58 -56 -51 -73 58 -125 107 -52 242 -51 324 4 69 45 99 157 62
234 -22 48 -76 81 -180 110 -107 30 -141 47 -155 78 -9 19 -7 29 6 50 36 54
114 56 211 5 l55 -29 31 45 c37 54 33 60 -49 97 -81 37 -180 44 -250 19z"/>
<path d="M5663 7076 c-89 -29 -167 -99 -206 -185 -33 -72 -31 -207 4 -282 33
-69 89 -127 155 -160 42 -21 63 -24 149 -24 110 0 154 14 228 76 l38 32 -37
38 c-21 22 -41 39 -45 39 -4 0 -30 -15 -58 -34 -82 -55 -162 -57 -242 -4 -47
32 -89 117 -89 183 0 105 79 203 178 220 47 7 122 -15 168 -50 l36 -27 39 38
c21 21 39 42 39 47 0 15 -43 47 -98 74 -66 31 -193 41 -259 19z"/>
<path d="M4270 6755 l0 -325 60 0 60 0 0 130 0 130 165 0 165 0 0 55 0 55
-165 0 -165 0 0 85 0 85 185 0 185 0 0 55 0 55 -245 0 -245 0 0 -325z"/>
<path d="M4880 6755 l0 -325 65 0 65 0 0 325 0 325 -65 0 -65 0 0 -325z"/>
<path d="M7290 6985 l0 -65 -30 0 c-29 0 -30 -1 -30 -50 0 -49 1 -50 30 -50
l30 0 0 -157 c0 -139 2 -162 20 -190 29 -47 117 -67 189 -42 29 10 31 13 31
64 l0 53 -35 -11 c-25 -7 -42 -7 -60 1 -25 12 -25 12 -25 147 l0 135 65 0 65
0 0 50 0 50 -65 0 -65 0 0 65 0 65 -60 0 -60 0 0 -65z"/>
<path d="M6245 6911 c-80 -36 -145 -142 -145 -236 0 -55 30 -135 66 -174 52
-58 122 -84 209 -79 75 5 113 20 159 64 l29 27 -37 34 -36 34 -37 -28 c-30
-23 -46 -28 -95 -28 -56 0 -62 2 -94 37 -60 66 -57 68 141 68 l175 0 0 43 c0
105 -55 202 -135 238 -53 24 -147 24 -200 0z m160 -103 c26 -20 61 -85 52 -94
-2 -3 -56 -3 -120 -2 l-116 3 19 42 c31 70 110 94 165 51z"/>
<path d="M6875 6915 c-16 -9 -38 -24 -47 -32 -17 -15 -18 -14 -18 10 0 26 -2
27 -60 27 l-60 0 0 -245 0 -245 59 0 60 0 3 166 3 166 33 29 c41 37 89 39 129
5 l28 -24 3 -171 3 -171 60 0 60 0 -3 199 c-3 218 -5 226 -71 275 -37 27 -140
33 -182 11z"/>
<path d="M7855 6918 c-11 -6 -35 -24 -52 -41 l-33 -31 0 37 0 37 -60 0 -60 0
0 -245 0 -245 60 0 60 0 0 123 c0 97 4 130 19 163 22 47 74 84 120 84 l31 0 0
65 0 65 -32 0 c-18 0 -42 -6 -53 -12z"/>
<path d="M8121 6904 c-88 -44 -138 -144 -128 -255 12 -137 114 -229 253 -229
71 0 115 15 164 57 l43 37 -38 33 c-33 29 -40 31 -54 19 -53 -46 -119 -57
-177 -30 -32 15 -64 57 -64 84 0 6 60 10 176 10 l177 0 -6 64 c-14 150 -99
236 -235 236 -43 0 -72 -7 -111 -26z m186 -106 c13 -13 27 -38 32 -56 l10 -32
-119 0 c-118 0 -118 0 -112 23 8 34 32 66 61 83 36 20 98 11 128 -18z"/>
<path d="M9324 6907 c-59 -28 -116 -91 -132 -146 -17 -54 -15 -145 4 -189 62
-150 274 -201 409 -98 111 85 127 265 32 373 -46 52 -100 76 -187 80 -64 3
-83 0 -126 -20z m197 -114 c60 -51 75 -127 38 -193 -50 -89 -171 -96 -233 -13
-26 35 -32 109 -13 156 33 77 144 104 208 50z"/>
<path d="M10015 6916 c-17 -7 -43 -28 -58 -45 l-27 -33 0 41 0 41 -60 0 -60 0
0 -245 0 -245 59 0 59 0 3 128 c3 106 7 133 25 162 25 44 78 80 115 80 29 0
29 0 29 65 0 64 0 65 -27 65 -16 -1 -42 -7 -58 -14z"/>
<path d="M767 6578 c-9 -29 -15 -53 -14 -55 10 -9 772 -373 782 -373 19 0 80
80 69 90 -13 12 -797 390 -810 390 -5 0 -18 -23 -27 -52z"/>
<path d="M7360 5825 l0 -335 60 0 60 0 0 155 c0 94 4 164 11 179 7 14 27 32
47 42 44 21 87 10 116 -29 19 -26 21 -44 24 -188 l3 -159 60 0 61 0 -4 188
c-2 158 -6 193 -22 224 -43 88 -170 114 -260 53 l-36 -24 0 114 0 115 -60 0
-60 0 0 -335z"/>
<path d="M9660 6100 l0 -60 65 0 65 0 0 60 0 60 -65 0 -65 0 0 -60z"/>
<path d="M10500 6100 l0 -60 65 0 65 0 0 60 0 60 -65 0 -65 0 0 -60z"/>
<path d="M12250 6100 l0 -60 65 0 65 0 0 60 0 60 -65 0 -65 0 0 -60z"/>
<path d="M3680 5810 l0 -320 60 0 60 0 0 110 0 110 65 0 65 0 77 -110 77 -110
74 0 74 0 -18 28 c-10 15 -47 67 -82 117 -59 80 -63 90 -47 100 63 37 82 55
103 95 53 105 11 233 -93 281 -34 16 -67 19 -227 19 l-188 0 0 -320z m373 182
c31 -30 39 -68 22 -109 -21 -49 -59 -63 -175 -63 l-100 0 0 101 0 101 114 -4
c104 -3 117 -5 139 -26z"/>
<path d="M8180 6075 l0 -55 100 0 100 0 0 -265 0 -265 65 0 65 0 0 265 0 265
100 0 100 0 0 55 0 55 -265 0 -265 0 0 -55z"/>
<path d="M760 5947 l0 -64 180 -86 c98 -48 186 -87 193 -87 8 0 31 19 50 43
l36 44 -222 106 c-122 59 -225 107 -229 107 -5 0 -8 -29 -8 -63z"/>
<path d="M4458 5975 c-56 -18 -128 -94 -146 -153 -41 -137 18 -279 137 -329
84 -35 225 -10 280 51 l25 26 -29 30 c-16 17 -32 30 -36 30 -5 0 -25 -11 -45
-25 -49 -33 -129 -35 -168 -4 -23 18 -56 67 -56 84 0 3 78 5 174 5 143 0 175
3 179 15 7 17 -7 108 -22 146 -13 36 -68 97 -102 115 -43 22 -136 26 -191 9z
m160 -130 c17 -19 32 -44 32 -55 0 -19 -6 -20 -116 -20 -115 0 -115 0 -108 23
20 63 74 101 129 92 17 -3 44 -20 63 -40z"/>
<path d="M4993 5981 c-106 -27 -156 -138 -100 -222 22 -33 39 -42 179 -93 25
-9 49 -24 52 -31 24 -63 -91 -78 -182 -24 -18 10 -37 19 -42 19 -10 0 -50 -63
-50 -79 0 -6 24 -23 53 -38 41 -21 69 -27 137 -30 75 -3 90 -1 125 19 53 31
77 79 72 143 -4 42 -10 54 -40 80 -20 17 -69 42 -109 56 -70 23 -108 47 -108
69 0 5 11 17 25 26 29 19 78 13 138 -18 21 -10 40 -18 42 -16 1 2 12 22 23 45
l21 41 -22 15 c-50 32 -158 52 -214 38z"/>
<path d="M5487 5976 c-101 -38 -160 -127 -160 -245 0 -110 55 -198 147 -236
49 -21 160 -22 207 -2 37 15 99 64 99 77 0 5 -16 21 -35 36 l-36 27 -31 -23
c-38 -28 -115 -38 -158 -20 -28 12 -70 64 -70 89 0 8 51 11 175 11 l175 0 0
49 c0 96 -49 185 -122 222 -53 27 -141 34 -191 15z m118 -100 c34 -15 57 -42
70 -83 6 -23 6 -23 -109 -23 -74 0 -116 4 -116 10 0 25 33 72 63 90 38 24 47
24 92 6z"/>
<path d="M6676 5980 c-16 -5 -44 -24 -63 -42 l-33 -32 0 37 0 37 -60 0 -60 0
0 -245 0 -245 60 0 60 0 0 122 c0 104 3 128 21 166 23 46 77 81 127 82 21 0
22 4 22 65 0 61 -1 65 -22 64 -13 0 -36 -5 -52 -9z"/>
<path d="M6972 5976 c-98 -32 -161 -114 -169 -219 -9 -115 33 -200 126 -250
44 -25 64 -29 126 -29 75 1 108 12 168 55 35 27 34 36 -7 76 l-34 33 -36 -27
c-93 -71 -213 -17 -223 102 -5 60 18 108 67 141 45 30 105 26 154 -12 19 -14
36 -26 39 -26 2 0 18 18 36 41 32 39 33 41 14 61 -50 55 -177 81 -261 54z"/>
<path d="M8964 5979 c-18 -5 -46 -25 -63 -44 l-31 -36 0 41 0 40 -60 0 -60 0
0 -245 0 -245 60 0 60 0 0 120 c0 79 5 132 14 153 18 45 70 86 117 93 l39 7 0
63 c0 71 -4 74 -76 53z"/>
<path d="M10120 5974 c-19 -8 -42 -22 -52 -31 -17 -15 -18 -14 -18 10 0 26 -1
27 -65 27 l-65 0 0 -245 0 -245 65 0 65 0 0 155 c0 94 4 164 11 179 7 14 27
32 47 42 44 21 87 10 116 -29 19 -26 21 -44 24 -188 l3 -159 60 0 59 0 0 166
c0 91 -5 185 -11 209 -25 100 -139 152 -239 109z"/>
<path d="M10976 5980 c-16 -5 -42 -21 -57 -36 l-29 -28 0 32 0 32 -60 0 -60 0
0 -245 0 -245 60 0 60 0 0 150 c0 169 8 198 62 226 26 13 38 14 70 5 60 -18
68 -44 68 -226 l0 -155 60 0 60 0 0 188 c0 175 -2 190 -23 227 -38 68 -127
100 -211 75z"/>
<path d="M11478 5981 c-90 -29 -146 -102 -155 -198 -8 -87 10 -140 67 -194 87
-85 208 -89 294 -10 l29 26 -7 -45 c-4 -25 -14 -56 -22 -68 -36 -55 -141 -67
-238 -27 -33 13 -61 23 -62 22 -1 -1 -11 -21 -23 -44 l-21 -42 22 -15 c80 -51
272 -61 355 -18 97 50 113 105 113 394 l0 218 -60 0 c-60 0 -60 0 -60 -30 l0
-30 -43 31 c-34 24 -57 31 -103 35 -32 2 -71 -1 -86 -5z m169 -121 c86 -52 78
-178 -12 -216 -143 -59 -262 102 -151 203 30 28 44 33 83 33 30 0 60 -7 80
-20z"/>
<path d="M12724 5979 c-17 -5 -43 -20 -57 -33 l-27 -25 0 29 c0 30 0 30 -60
30 l-60 0 0 -245 0 -245 59 0 60 0 3 164 c3 157 4 166 26 189 31 32 65 41 108
27 56 -19 64 -47 64 -225 l0 -155 60 0 60 0 0 183 c0 170 -2 186 -22 227 -37
73 -124 105 -214 79z"/>
<path d="M5970 5963 c-25 -8 -47 -17 -48 -18 -5 -5 18 -78 28 -88 4 -5 33 -1
65 8 96 28 170 5 189 -60 6 -20 2 -21 -101 -20 -90 0 -115 -3 -147 -21 -104
-54 -101 -214 4 -266 55 -28 153 -24 207 7 42 25 43 25 43 5 0 -18 6 -20 55
-20 l55 0 0 178 c0 164 -2 181 -22 222 -34 66 -87 90 -198 90 -50 -1 -104 -7
-130 -17z m210 -262 c40 -11 39 -54 -3 -96 -31 -31 -41 -35 -86 -35 -38 0 -56
5 -71 20 -36 36 -21 94 30 113 21 8 100 6 130 -2z"/>
<path d="M9167 5964 c-53 -16 -53 -19 -27 -89 11 -30 8 -29 77 -9 93 27 167 3
187 -61 6 -19 1 -20 -107 -20 -99 0 -116 -3 -148 -23 -97 -60 -91 -213 11
-264 23 -12 58 -18 101 -18 54 0 73 5 103 25 44 30 46 30 46 5 0 -18 7 -20 55
-20 l55 0 0 178 c0 167 -1 182 -23 222 -35 66 -87 90 -196 89 -47 0 -108 -7
-134 -15z m213 -263 c40 -11 39 -54 -3 -96 -30 -30 -41 -35 -84 -35 -63 0 -93
20 -93 64 0 32 18 57 50 69 21 8 100 6 130 -2z"/>
<path d="M9660 5735 l0 -245 60 0 60 0 0 245 0 245 -60 0 -60 0 0 -245z"/>
<path d="M10510 5735 l0 -245 60 0 60 0 0 245 0 245 -60 0 -60 0 0 -245z"/>
<path d="M12250 5735 l0 -245 65 0 65 0 0 245 0 245 -65 0 -65 0 0 -245z"/>
<path d="M1657 4953 c162 -428 240 -856 213 -1178 -20 -250 -59 -416 -175
-750 -237 -679 -267 -779 -300 -1010 -21 -144 -21 -382 -1 -502 87 -499 443
-828 1111 -1027 152 -45 415 -109 421 -103 3 3 -73 45 -168 94 -658 340 -936
661 -955 1103 -10 226 41 466 196 929 50 146 104 320 120 387 130 518 111
1031 -54 1464 -51 134 -155 330 -230 435 -69 96 -181 225 -195 225 -5 0 2 -30
17 -67z"/>
<path d="M4012 4860 c-199 -53 -356 -196 -422 -383 -31 -87 -39 -285 -15 -377
29 -113 72 -188 155 -270 127 -126 252 -174 455 -174 178 0 319 46 453 145
l52 40 0 259 0 260 -260 0 -260 0 0 -115 0 -115 130 0 130 0 0 -79 c0 -94 -5
-99 -113 -133 -86 -26 -198 -22 -269 10 -66 29 -142 104 -175 171 -25 51 -28
66 -28 166 0 101 2 115 28 165 36 70 98 134 162 168 45 24 61 27 150 27 112
-1 157 -15 245 -80 l49 -36 86 103 86 103 -33 27 c-45 38 -152 93 -218 113
-34 10 -104 18 -185 21 -108 4 -142 1 -203 -16z"/>
<path d="M7860 4865 c-86 -19 -213 -83 -277 -140 -189 -166 -255 -473 -152
-712 48 -111 146 -218 259 -281 98 -54 190 -77 320 -77 190 0 331 56 456 180
79 79 132 173 160 285 23 90 15 271 -16 357 -61 173 -211 317 -390 374 -86 28
-268 35 -360 14z m292 -264 c74 -36 133 -94 170 -169 31 -62 33 -74 33 -167 0
-93 -2 -105 -33 -167 -38 -77 -92 -130 -171 -166 -82 -39 -191 -37 -279 2
-290 133 -273 566 26 679 66 24 190 19 254 -12z"/>
<path d="M11375 4870 c-235 -47 -419 -225 -470 -455 -25 -111 -17 -264 18
-365 50 -142 156 -264 286 -330 174 -87 400 -90 574 -7 75 35 197 129 197 150
0 7 -38 50 -84 96 l-84 83 -53 -44 c-85 -69 -148 -92 -249 -92 -72 0 -93 4
-141 27 -195 94 -260 362 -134 552 36 54 65 79 135 116 38 20 60 24 135 24 80
0 97 -3 155 -31 36 -17 82 -45 102 -63 20 -17 40 -31 44 -30 5 0 46 44 92 97
l83 97 -48 43 c-62 55 -169 108 -258 127 -74 16 -233 18 -300 5z"/>
<path d="M12464 4866 c-119 -27 -219 -97 -263 -184 -30 -60 -44 -156 -32 -229
25 -159 123 -237 379 -303 179 -45 242 -83 242 -145 0 -70 -62 -107 -177 -106
-86 0 -177 31 -261 88 -37 25 -70 47 -74 49 -7 5 -158 -173 -158 -186 0 -17
77 -72 155 -111 113 -56 215 -79 344 -79 210 0 343 68 410 210 22 48 26 68 26
155 0 118 -19 169 -90 233 -67 63 -89 72 -395 163 -81 25 -140 70 -140 108 0
34 22 72 51 86 87 46 224 18 376 -76 l31 -19 66 97 c36 54 66 103 66 108 0 23
-159 107 -248 130 -89 22 -234 28 -308 11z"/>
<path d="M4940 4265 l0 -595 455 0 455 0 0 120 0 120 -320 0 -320 0 0 120 0
120 280 0 280 0 0 120 0 120 -280 0 -280 0 0 115 0 115 315 0 315 0 0 120 0
120 -450 0 -450 0 0 -595z"/>
<path d="M6090 4265 l0 -595 130 0 130 0 2 368 3 368 280 -368 280 -368 113 0
112 0 0 595 0 595 -130 0 -130 0 -2 -353 -3 -354 -269 354 -269 353 -124 0
-123 0 0 -595z"/>
<path d="M8880 4265 l0 -595 130 0 130 0 2 375 3 375 157 -237 c86 -131 161
-239 167 -241 6 -2 83 106 171 240 l160 243 0 -377 0 -378 135 0 135 0 0 595
0 596 -147 -3 -148 -3 -118 -190 c-65 -104 -133 -214 -150 -242 l-33 -53 -150
243 -151 242 -146 3 -147 3 0 -596z"/>
<path d="M10370 4265 l0 -595 135 0 135 0 0 595 0 595 -135 0 -135 0 0 -595z"/>
<path d="M931 4335 c-18 -32 -31 -58 -29 -60 4 -4 804 -235 813 -235 7 0 1
128 -6 134 -2 1 -166 49 -364 106 -198 56 -365 105 -371 107 -6 2 -26 -21 -43
-52z"/>
<path d="M677 3833 c-3 -5 -12 -31 -20 -59 l-15 -51 497 -143 c273 -79 503
-145 512 -147 12 -4 17 9 25 60 l10 64 -491 141 c-270 78 -496 142 -502 142
-7 0 -14 -3 -16 -7z"/>
<path d="M615 3228 c4 -35 9 -65 11 -67 2 -2 189 -57 416 -123 227 -65 420
-121 430 -124 12 -4 21 8 38 52 11 31 17 60 13 64 -9 9 -882 260 -902 260 -10
0 -11 -13 -6 -62z"/>
<path d="M9160 3191 c-133 -26 -237 -97 -286 -198 -55 -111 -42 -272 29 -365
44 -58 156 -113 317 -157 123 -33 206 -67 227 -93 20 -24 25 -59 13 -88 -46
-112 -283 -93 -463 36 -27 19 -50 34 -51 32 -1 -2 -38 -45 -81 -97 l-79 -94
30 -24 c56 -46 160 -102 239 -129 64 -22 104 -28 200 -32 140 -5 209 6 294 49
138 69 202 205 179 383 -20 149 -111 220 -380 297 -205 58 -238 79 -238 146 0
41 24 69 75 89 78 29 195 4 319 -71 32 -20 60 -35 61 -33 1 2 33 48 70 102
l69 99 -30 24 c-43 35 -160 90 -229 108 -73 19 -224 27 -285 16z"/>
<path d="M10382 3185 c-212 -46 -391 -221 -447 -435 -23 -86 -23 -244 0 -330
35 -137 130 -271 242 -346 176 -117 443 -134 636 -41 68 33 171 111 191 144 6
12 -13 37 -77 101 l-85 85 -44 -37 c-23 -20 -72 -52 -108 -69 -58 -29 -74 -32
-150 -32 -66 1 -96 6 -136 24 -63 27 -134 98 -171 171 -26 50 -28 64 -28 165
0 98 3 116 27 167 32 69 97 136 163 169 42 20 65 24 140 24 102 0 159 -21 248
-88 26 -21 49 -37 51 -37 10 0 166 185 166 196 0 18 -116 103 -176 130 -115
51 -307 68 -442 39z"/>
<path d="M14712 3185 c-170 -37 -326 -160 -400 -316 -52 -109 -64 -162 -64
-284 0 -121 12 -175 62 -280 69 -144 187 -248 342 -299 152 -51 346 -42 485
24 69 32 203 134 203 154 0 6 -38 49 -84 95 l-84 84 -44 -37 c-24 -21 -72 -52
-108 -69 -58 -29 -74 -32 -150 -32 -65 1 -96 6 -132 22 -70 32 -141 103 -174
176 -26 56 -29 72 -29 167 0 93 3 112 27 162 32 69 96 135 163 168 42 21 65
25 140 25 102 0 159 -20 248 -88 26 -21 49 -37 51 -37 10 0 166 185 166 196 0
18 -116 103 -176 130 -115 51 -307 68 -442 39z"/>
<path d="M5247 3158 c-8 -18 -117 -274 -242 -568 -125 -294 -234 -550 -242
-567 l-13 -33 139 0 139 0 54 133 55 132 244 3 244 2 54 -135 55 -135 138 0
c91 0 138 4 138 11 0 8 -443 1057 -491 1162 l-12 27 -123 0 -124 0 -13 -32z
m273 -650 c0 -4 -63 -8 -140 -8 -77 0 -140 2 -140 5 0 7 130 326 137 339 5 7
143 -317 143 -336z"/>
<path d="M7397 3158 c-8 -18 -117 -274 -242 -568 -125 -294 -234 -550 -242
-567 l-13 -33 139 0 139 0 54 133 55 132 244 3 244 2 54 -135 55 -135 138 0
c91 0 138 4 138 11 0 8 -443 1057 -491 1162 l-12 27 -123 0 -124 0 -13 -32z
m273 -650 c0 -4 -63 -8 -140 -8 -77 0 -140 2 -140 5 0 7 130 326 137 339 5 7
143 -317 143 -336z"/>
<path d="M3610 2584 l0 -596 298 4 c289 4 299 5 377 31 208 69 350 215 400
412 20 77 19 230 -1 308 -56 217 -226 374 -457 421 -58 12 -140 16 -347 16
l-270 0 0 -596z m588 333 c148 -55 230 -188 220 -356 -8 -134 -74 -236 -188
-290 -50 -24 -68 -26 -202 -29 l-148 -4 0 352 0 353 138 -6 c89 -3 152 -10
180 -20z"/>
<path d="M5970 3055 l0 -125 175 0 175 0 0 -470 0 -470 135 0 135 0 0 470 0
470 180 0 180 0 0 125 0 125 -490 0 -490 0 0 -125z"/>
<path d="M11240 2585 l0 -595 135 0 135 0 0 595 0 595 -135 0 -135 0 0 -595z"/>
<path d="M11810 2585 l0 -595 450 0 450 0 0 120 0 120 -320 0 -320 0 0 120 0
120 280 0 280 0 0 120 0 120 -280 0 -280 0 0 115 0 115 320 0 320 0 0 120 0
120 -450 0 -450 0 0 -595z"/>
<path d="M12950 2585 l0 -595 135 0 135 0 2 364 3 364 275 -362 276 -361 117
-3 117 -3 0 596 0 595 -135 0 -135 0 -2 -351 -3 -351 -265 349 -266 348 -127
3 -127 3 0 -596z"/>
<path d="M15560 2585 l0 -595 450 0 450 0 0 120 0 120 -320 0 -320 0 0 120 0
120 280 0 280 0 0 120 0 120 -280 0 -280 0 0 115 0 115 315 0 315 0 0 120 0
120 -445 0 -445 0 0 -595z"/>
<path d="M800 2645 c0 -15 12 -49 27 -76 30 -55 -1 -42 317 -133 88 -25 162
-43 165 -41 3 3 13 31 22 61 13 40 14 56 6 59 -7 2 -124 36 -262 76 -137 39
-256 74 -262 76 -9 3 -13 -4 -13 -22z"/>
<path d="M1925 2028 c-28 -79 -40 -256 -26 -386 14 -130 46 -290 72 -362 52
-140 173 -335 271 -438 67 -71 372 -248 643 -374 410 -190 797 -308 1280 -388
441 -73 461 -74 880 -75 338 0 398 3 542 23 697 95 1287 312 1855 681 65 42
118 79 118 84 0 4 -87 7 -192 7 -202 0 -376 16 -567 50 l-114 21 -66 -27
c-387 -155 -797 -251 -1226 -285 -184 -15 -598 -6 -775 16 -844 104 -1603 446
-2237 1007 -122 108 -322 312 -393 401 -47 58 -58 66 -65 45z"/>
</g>
</svg>
