<?xml version="1.0" standalone="no"?>
<!DOCTYPE svg PUBLIC "-//W3C//DTD SVG 20010904//EN"
 "http://www.w3.org/TR/2001/REC-SVG-20010904/DTD/svg10.dtd">
<svg version="1.0" xmlns="http://www.w3.org/2000/svg"
 width="620.000000pt" height="350.000000pt" viewBox="0 0 620.000000 350.000000"
 preserveAspectRatio="xMidYMid meet">
<metadata>
Created by potrace 1.16, written by Peter Selinger 2001-2019
</metadata>
<g transform="translate(0.000000,350.000000) scale(0.100000,-0.100000)"
fill="#000000" stroke="none">
<path d="M3600 2430 c-240 -31 -405 -170 -466 -390 -8 -30 -17 -103 -21 -162
l-6 -108 -93 0 -94 0 0 -95 0 -95 95 0 95 0 0 -585 0 -585 120 0 120 0 0 585
0 585 125 0 125 0 0 95 0 95 -125 0 -125 0 0 43 c1 66 18 177 38 231 21 59 81
130 132 156 48 25 161 44 211 36 l39 -6 0 99 c0 94 -1 99 -22 105 -28 7 -74 6
-148 -4z"/>
<path d="M2435 1790 c-123 -26 -213 -80 -277 -165 -51 -67 -72 -133 -72 -225
0 -172 101 -282 353 -385 195 -79 253 -134 254 -243 0 -82 -25 -128 -92 -169
-61 -37 -132 -49 -224 -39 -63 7 -204 50 -221 67 -22 21 -27 4 -24 -98 l3
-107 60 -20 c85 -27 317 -34 404 -12 141 36 249 117 299 223 24 53 27 69 27
173 0 105 -2 119 -26 165 -55 103 -163 179 -374 264 -145 58 -205 120 -205
210 0 78 49 142 129 169 53 18 181 15 250 -7 l61 -19 0 99 0 98 -37 11 c-50
15 -237 21 -288 10z"/>
<path d="M3770 1090 l0 -680 125 0 125 0 0 680 0 680 -125 0 -125 0 0 -680z"/>
</g>
</svg>
