<svg id="Layer_1" data-name="Layer 1" xmlns="http://www.w3.org/2000/svg" viewBox="0 0 166.02344 196.11523"><defs><style>.cls-1,.cls-2,.cls-3,.cls-4{isolation:isolate;font-family:Poppins-Regular, Poppins;}.cls-1,.cls-3{font-size:21.7452px;}.cls-1,.cls-2,.cls-5{fill:#1f78b4;}.cls-2,.cls-4{font-size:21.74389px;}.cls-3,.cls-4,.cls-7{fill:#4e4e4e;}.cls-6{fill:#b25eb0;}</style></defs><title>SVG_AI_logos</title><text class="cls-1" transform="translate(51.30664 57.23047) scale(1.03488 1)">Summit</text><text class="cls-2" transform="translate(51.35352 18.46045) scale(1.03371 1)">Systems</text><text class="cls-2" transform="translate(51.20508 38.07666) scale(1.03371 1)">Genomics</text><text class="cls-1" transform="translate(51.30664 183.67676) scale(1.03488 1)">Summit</text><text class="cls-2" transform="translate(51.35352 144.90723) scale(1.03371 1)">Systems</text><text class="cls-2" transform="translate(51.20508 164.52344) scale(1.03371 1)">Genomics</text><text class="cls-3" transform="translate(51.46338 119.11865) scale(1.0407 1)">Summit</text><text class="cls-4" transform="translate(51.50977 80.34912) scale(1.03745 1)">Systems</text><text class="cls-4" transform="translate(51.36035 99.96533) scale(1.03745 1)">Genomics</text><path class="cls-5" d="M28.2356,57.75h-2.937a1.52443,1.52443,0,0,1-1.46851-1.57471V51.0386A21.97464,21.97464,0,0,0,15.293,33.45542,28.42633,28.42633,0,0,1,4.25,10.7114V5.57471A1.52443,1.52443,0,0,1,5.71851,4h2.937A1.52443,1.52443,0,0,1,10.124,5.57471V10.7114a21.97366,21.97366,0,0,0,8.5376,17.58318A28.42732,28.42732,0,0,1,29.7041,51.0386v5.13669A1.52443,1.52443,0,0,1,28.2356,57.75Z" transform="translate(-4.25 -1.05664)"/><path class="cls-5" d="M23.62429,28.58317A29.02008,29.02008,0,0,0,29.7041,10.7114V5.57471A1.52443,1.52443,0,0,0,28.2356,4h-2.937a1.52443,1.52443,0,0,0-1.46851,1.57471V10.7114a22.4215,22.4215,0,0,1-4.78527,13.92146q.62279.57067,1.30061,1.0814a29.26337,29.26337,0,0,1,3.27888,2.86891Z" transform="translate(-4.25 -1.05664)"/><path class="cls-5" d="M10.32981,33.16651A29.02159,29.02159,0,0,0,4.25,51.0386v5.13669A1.52443,1.52443,0,0,0,5.71851,57.75h2.937A1.52443,1.52443,0,0,0,10.124,56.17529V51.0386A22.42276,22.42276,0,0,1,14.9093,37.11682q-.62265-.57067-1.30031-1.08109A29.28677,29.28677,0,0,1,10.32981,33.16651Z" transform="translate(-4.25 -1.05664)"/><path class="cls-6" d="M13.061,6.449h7.832V9.5984H13.061Z" transform="translate(-4.25 -1.05664)"/><path class="cls-6" d="M13.061,52.1515h7.832v3.14941H13.061Z" transform="translate(-4.25 -1.05664)"/><path class="cls-6" d="M20.26611,46.13317H13.68828a19.48769,19.48769,0,0,0-.54726,3.14941H20.8124A19.44786,19.44786,0,0,0,20.26611,46.13317Z" transform="translate(-4.25 -1.05664)"/><path class="cls-6" d="M13.14082,12.4673a19.4803,19.4803,0,0,0,.54511,3.14941h6.57989a19.48769,19.48769,0,0,0,.54726-3.14941Z" transform="translate(-4.25 -1.05664)"/><path class="cls-6" d="M14.67972,18.48562A18.66586,18.66586,0,0,0,16.435,21.635h1.08327a18.67179,18.67179,0,0,0,1.75526-3.14941Z" transform="translate(-4.25 -1.05664)"/><path class="cls-6" d="M19.27438,43.26427a18.67221,18.67221,0,0,0-1.75516-3.14941H16.43586a18.67856,18.67856,0,0,0-1.75526,3.14941Z" transform="translate(-4.25 -1.05664)"/><path class="cls-6" d="M51.438,50.29639A3.15709,3.15709,0,1,1,54.375,47.147,3.05225,3.05225,0,0,1,51.438,50.29639Z" transform="translate(-4.25 -1.05664)"/><path class="cls-6" d="M51.438,17.75244A3.05225,3.05225,0,0,1,48.501,14.603a2.94417,2.94417,0,1,1,5.874,0A3.05225,3.05225,0,0,1,51.438,17.75244Z" transform="translate(-4.25 -1.05664)"/><ellipse class="cls-6" cx="47.18799" cy="29.81836" rx="2.93701" ry="3.14941"/><path class="cls-6" d="M47.91641,42.109l-6.89483-5.17543a1.4016,1.4016,0,0,0-.84214-.2846H29.32366a32.099,32.099,0,0,1,1.341,3.14941h9.05187l6.362,4.77546A6.28035,6.28035,0,0,1,47.91642,42.109Z" transform="translate(-4.25 -1.05664)"/><path class="cls-6" d="M41.02158,24.81647,47.91641,19.641a6.2796,6.2796,0,0,1-1.83789-2.46484l-6.36206,4.77546H30.6647a32.09981,32.09981,0,0,1-1.34114,3.14941H40.17944A1.40161,1.40161,0,0,0,41.02158,24.81647Z" transform="translate(-4.25 -1.05664)"/><path class="cls-6" d="M45.74988,29.30029H26.844q-.566.80688-1.18225,1.5746.61574.76767,1.18244,1.57481H45.74988a6.762,6.762,0,0,1,0-3.14941Z" transform="translate(-4.25 -1.05664)"/><path class="cls-7" d="M28.24666,119.77369h-2.937a1.52443,1.52443,0,0,1-1.46851-1.57471v-5.13669A21.97464,21.97464,0,0,0,15.304,95.47911a28.42633,28.42633,0,0,1-11.043-22.744V67.5984a1.52443,1.52443,0,0,1,1.46851-1.57471h2.937a1.52443,1.52443,0,0,1,1.46851,1.57471v5.13669a21.97366,21.97366,0,0,0,8.5376,17.58318,28.42732,28.42732,0,0,1,11.04248,22.744V118.199A1.52443,1.52443,0,0,1,28.24666,119.77369Z" transform="translate(-4.25 -1.05664)"/><path class="cls-7" d="M23.63535,90.60686a29.02008,29.02008,0,0,0,6.07981-17.87177V67.5984a1.52443,1.52443,0,0,0-1.46851-1.57471h-2.937a1.52443,1.52443,0,0,0-1.46851,1.57471v5.13669a22.4215,22.4215,0,0,1-4.78527,13.92146q.62279.57067,1.30061,1.0814a29.26337,29.26337,0,0,1,3.27888,2.86891Z" transform="translate(-4.25 -1.05664)"/><path class="cls-7" d="M10.34087,95.1902a29.02159,29.02159,0,0,0-6.07981,17.87209V118.199a1.52443,1.52443,0,0,0,1.46851,1.57471h2.937a1.52443,1.52443,0,0,0,1.46851-1.57471v-5.13669a22.42276,22.42276,0,0,1,4.78527-13.92178q-.62265-.57067-1.30031-1.08109A29.28677,29.28677,0,0,1,10.34087,95.1902Z" transform="translate(-4.25 -1.05664)"/><path class="cls-7" d="M13.0721,68.47267h7.832v3.14941h-7.832Z" transform="translate(-4.25 -1.05664)"/><path class="cls-7" d="M13.0721,114.17519h7.832v3.14941h-7.832Z" transform="translate(-4.25 -1.05664)"/><path class="cls-7" d="M20.27718,108.15687H13.69935a19.48769,19.48769,0,0,0-.54726,3.14941h7.67138A19.44786,19.44786,0,0,0,20.27718,108.15687Z" transform="translate(-4.25 -1.05664)"/><path class="cls-7" d="M13.15189,74.491a19.4803,19.4803,0,0,0,.54511,3.14941h6.57989a19.48769,19.48769,0,0,0,.54726-3.14941Z" transform="translate(-4.25 -1.05664)"/><path class="cls-7" d="M14.69078,80.50931A18.66586,18.66586,0,0,0,16.446,83.65873h1.08327a18.67179,18.67179,0,0,0,1.75526-3.14941Z" transform="translate(-4.25 -1.05664)"/><path class="cls-7" d="M19.28545,105.288a18.67221,18.67221,0,0,0-1.75516-3.14941H16.44692a18.67856,18.67856,0,0,0-1.75526,3.14941Z" transform="translate(-4.25 -1.05664)"/><path class="cls-7" d="M51.44905,112.32008a3.15709,3.15709,0,1,1,2.937-3.14941A3.05225,3.05225,0,0,1,51.44905,112.32008Z" transform="translate(-4.25 -1.05664)"/><path class="cls-7" d="M51.44905,79.77613a3.15709,3.15709,0,1,1,2.937-3.14941A3.05225,3.05225,0,0,1,51.44905,79.77613Z" transform="translate(-4.25 -1.05664)"/><ellipse class="cls-7" cx="47.19905" cy="91.84205" rx="2.93701" ry="3.14941"/><path class="cls-7" d="M47.92748,104.13265l-6.89483-5.17543a1.4016,1.4016,0,0,0-.84214-.2846H29.33473a32.099,32.099,0,0,1,1.341,3.14941h9.05187l6.362,4.77546a6.28035,6.28035,0,0,1,1.83789-2.46484Z" transform="translate(-4.25 -1.05664)"/><path class="cls-7" d="M41.03264,86.84016l6.89483-5.17543a6.2796,6.2796,0,0,1-1.83789-2.46484l-6.36206,4.77546H30.67576a32.09981,32.09981,0,0,1-1.34114,3.14941H40.19051A1.40161,1.40161,0,0,0,41.03264,86.84016Z" transform="translate(-4.25 -1.05664)"/><path class="cls-7" d="M45.76094,91.324H26.8551q-.566.80688-1.18225,1.5746.61574.76767,1.18244,1.57481H45.76094a6.762,6.762,0,0,1,0-3.14941Z" transform="translate(-4.25 -1.05664)"/><path class="cls-5" d="M28.63826,184.7334h-2.937a1.52443,1.52443,0,0,1-1.46851-1.57471V178.022a21.97464,21.97464,0,0,0-8.53711-17.58318,28.42633,28.42633,0,0,1-11.043-22.744v-5.13669a1.52443,1.52443,0,0,1,1.46851-1.57471h2.937a1.52443,1.52443,0,0,1,1.46851,1.57471v5.13669a21.97366,21.97366,0,0,0,8.5376,17.58318,28.42732,28.42732,0,0,1,11.04248,22.744v5.13669A1.52443,1.52443,0,0,1,28.63826,184.7334Z" transform="translate(-4.25 -1.05664)"/><path class="cls-5" d="M24.027,155.56657a29.02008,29.02008,0,0,0,6.07981-17.87177v-5.13669a1.52443,1.52443,0,0,0-1.46851-1.57471h-2.937a1.52443,1.52443,0,0,0-1.46851,1.57471v5.13669a22.4215,22.4215,0,0,1-4.78527,13.92146q.62279.57067,1.30061,1.0814a29.26336,29.26336,0,0,1,3.27888,2.86891Z" transform="translate(-4.25 -1.05664)"/><path class="cls-5" d="M10.73248,160.14991A29.02159,29.02159,0,0,0,4.65266,178.022v5.13669a1.52443,1.52443,0,0,0,1.46851,1.57471h2.937a1.52443,1.52443,0,0,0,1.46851-1.57471V178.022A22.42276,22.42276,0,0,1,15.312,164.10022q-.62265-.57067-1.30031-1.08109A29.28677,29.28677,0,0,1,10.73248,160.14991Z" transform="translate(-4.25 -1.05664)"/><path class="cls-6" d="M13.4637,133.43238h7.832v3.14941h-7.832Z" transform="translate(-4.25 -1.05664)"/><path class="cls-6" d="M13.4637,179.13489h7.832v3.14941h-7.832Z" transform="translate(-4.25 -1.05664)"/><path class="cls-6" d="M20.66878,173.11657H14.09095a19.48769,19.48769,0,0,0-.54726,3.14941h7.67138A19.44786,19.44786,0,0,0,20.66878,173.11657Z" transform="translate(-4.25 -1.05664)"/><path class="cls-6" d="M13.54349,139.4507a19.4803,19.4803,0,0,0,.54511,3.14941h6.57989a19.48769,19.48769,0,0,0,.54726-3.14941Z" transform="translate(-4.25 -1.05664)"/><path class="cls-6" d="M15.08238,145.469a18.66586,18.66586,0,0,0,1.75526,3.14941h1.08327a18.67179,18.67179,0,0,0,1.75526-3.14941Z" transform="translate(-4.25 -1.05664)"/><path class="cls-6" d="M19.677,170.24767a18.67221,18.67221,0,0,0-1.75516-3.14941H16.83852a18.67855,18.67855,0,0,0-1.75526,3.14941Z" transform="translate(-4.25 -1.05664)"/><path class="cls-6" d="M51.84065,177.27979a3.15709,3.15709,0,1,1,2.937-3.14941A3.05225,3.05225,0,0,1,51.84065,177.27979Z" transform="translate(-4.25 -1.05664)"/><path class="cls-6" d="M51.84065,144.73584a3.15709,3.15709,0,1,1,2.937-3.14941A3.05225,3.05225,0,0,1,51.84065,144.73584Z" transform="translate(-4.25 -1.05664)"/><ellipse class="cls-6" cx="47.59065" cy="156.80176" rx="2.93701" ry="3.14941"/><path class="cls-6" d="M48.31908,169.09236l-6.89483-5.17543a1.4016,1.4016,0,0,0-.84214-.2846H29.72633a32.099,32.099,0,0,1,1.341,3.14941h9.05187l6.362,4.77546a6.28035,6.28035,0,0,1,1.83789-2.46484Z" transform="translate(-4.25 -1.05664)"/><path class="cls-6" d="M41.42425,151.79987l6.89483-5.17543a6.27961,6.27961,0,0,1-1.83789-2.46484l-6.36206,4.77546H31.06737a32.09981,32.09981,0,0,1-1.34114,3.14941H40.58211A1.40161,1.40161,0,0,0,41.42425,151.79987Z" transform="translate(-4.25 -1.05664)"/><path class="cls-6" d="M46.15254,156.28369H27.2467q-.566.80688-1.18225,1.5746.61574.76767,1.18244,1.57481H46.15254a6.762,6.762,0,0,1,0-3.14941Z" transform="translate(-4.25 -1.05664)"/></svg>