<?xml version="1.0" standalone="no"?>
<!DOCTYPE svg PUBLIC "-//W3C//DTD SVG 20010904//EN"
 "http://www.w3.org/TR/2001/REC-SVG-20010904/DTD/svg10.dtd">
<svg version="1.0" xmlns="http://www.w3.org/2000/svg"
 width="3507.000000pt" height="1222.000000pt" viewBox="0 0 3507.000000 1222.000000"
 preserveAspectRatio="xMidYMid meet">

<g transform="translate(0.000000,1222.000000) scale(0.100000,-0.100000)"
fill="#000000" stroke="none">
<path d="M1885 12074 c-115 -35 -205 -104 -238 -182 -50 -121 -49 -105 -44
-804 5 -787 25 -1117 87 -1463 5 -27 14 -84 20 -125 7 -41 14 -82 17 -90 5
-16 29 -126 44 -195 13 -63 25 -116 42 -175 9 -30 25 -89 36 -130 47 -174 171
-531 212 -612 5 -10 9 -22 9 -28 0 -5 11 -33 24 -62 13 -29 39 -87 57 -128 18
-41 81 -169 140 -285 294 -582 679 -1108 1145 -1566 251 -248 477 -438 749
-634 311 -224 461 -349 685 -575 488 -489 839 -1035 1100 -1715 4 -11 15 -38
23 -60 9 -22 21 -56 26 -75 6 -19 20 -64 32 -100 23 -71 36 -117 49 -170 4
-19 17 -69 28 -110 37 -143 82 -380 101 -540 6 -47 14 -105 17 -130 3 -25 9
-409 13 -855 9 -888 6 -852 71 -946 38 -56 131 -128 165 -129 11 0 38 -7 60
-15 64 -23 722 -21 813 2 126 32 230 128 260 239 9 32 12 236 12 748 0 778 -5
900 -51 1286 -22 180 -75 469 -119 640 -5 19 -21 82 -35 140 -27 108 -43 160
-102 340 -50 154 -110 318 -143 395 -10 22 -32 74 -49 115 -61 144 -76 176
-167 355 -222 437 -475 820 -778 1180 -337 398 -683 717 -1141 1050 -276 201
-427 327 -629 525 -223 219 -408 434 -567 660 -52 74 -205 314 -250 393 -73
129 -269 534 -269 557 0 6 -4 18 -9 28 -24 45 -98 250 -130 362 -12 41 -28 93
-36 115 -7 22 -23 81 -35 130 -11 50 -25 107 -31 128 -28 104 -62 334 -99 653
-6 54 -10 385 -10 820 0 788 0 786 -54 878 -29 49 -95 110 -141 131 -94 41
-140 45 -506 44 -285 0 -364 -3 -404 -15z"/>
<path d="M6532 12071 c-116 -32 -216 -125 -252 -234 -10 -33 -15 -217 -21
-852 -4 -445 -10 -830 -13 -855 -3 -25 -11 -83 -17 -130 -10 -81 -28 -191 -50
-310 -18 -96 -26 -128 -69 -300 -28 -109 -114 -384 -140 -445 -4 -11 -32 -78
-60 -150 -162 -405 -430 -858 -711 -1202 -33 -39 -59 -75 -59 -80 0 -12 133
-117 320 -253 250 -182 494 -379 656 -529 33 -31 68 -62 76 -69 14 -11 26 -1
90 80 185 233 336 449 468 668 65 108 74 125 129 224 52 92 174 335 200 396
13 30 33 78 46 105 12 28 41 97 65 155 23 58 46 114 50 125 27 66 110 310 138
410 7 22 23 75 37 119 14 43 25 86 25 94 0 9 4 29 10 46 12 41 56 226 69 299
6 31 15 81 21 110 41 215 70 451 90 732 14 196 13 1562 -1 1606 -41 129 -122
205 -259 241 -95 26 -743 25 -838 -1z"/>
<path d="M19640 11170 l0 -390 -225 0 -225 0 0 -145 0 -145 225 0 225 0 0
-955 0 -955 160 0 160 0 0 955 0 955 255 0 255 0 0 145 0 145 -255 0 -255 0 0
390 0 390 -160 0 -160 0 0 -390z"/>
<path d="M13170 11514 c-422 -52 -693 -230 -801 -524 -68 -188 -61 -398 19
-555 30 -60 134 -166 221 -224 144 -98 382 -190 664 -257 453 -108 610 -155
767 -232 142 -68 226 -145 254 -229 20 -61 23 -191 5 -256 -38 -141 -140 -245
-303 -308 -261 -101 -735 -98 -1010 5 -102 39 -171 81 -247 154 -84 78 -141
183 -159 291 l-12 71 -168 0 -167 0 13 -83 c62 -389 305 -648 709 -755 150
-40 257 -54 465 -59 308 -8 536 26 733 112 125 54 186 94 278 185 133 132 191
267 205 480 20 290 -112 496 -416 654 -146 76 -284 120 -741 236 -227 58 -430
115 -493 140 -174 68 -291 158 -331 254 -30 72 -13 232 35 326 62 122 245 226
466 265 112 19 360 20 479 0 327 -53 532 -211 586 -452 l12 -53 165 0 165 0
-6 63 c-28 300 -272 571 -619 687 -147 50 -240 62 -493 65 -132 2 -256 1 -275
-1z"/>
<path d="M3670 11115 l0 -335 920 0 920 0 0 335 0 335 -920 0 -920 0 0 -335z"/>
<path d="M17815 10799 c-310 -42 -521 -181 -596 -394 -71 -202 -36 -426 85
-548 130 -130 295 -199 667 -281 273 -61 366 -88 474 -140 152 -74 199 -137
199 -266 -1 -200 -154 -309 -479 -341 -243 -23 -443 32 -571 156 -69 68 -99
127 -128 258 l-6 27 -167 0 -166 0 6 -63 c7 -80 54 -210 101 -281 20 -30 70
-86 111 -124 179 -171 418 -252 740 -252 557 0 884 241 885 652 0 156 -39 259
-136 354 -138 137 -292 200 -704 288 -218 47 -327 79 -430 127 -150 70 -197
138 -188 274 6 92 40 154 112 202 164 111 554 120 755 19 99 -50 160 -126 183
-225 l11 -51 164 0 c130 0 163 3 163 13 0 32 -41 169 -63 214 -90 177 -254
299 -483 359 -86 23 -124 27 -284 29 -102 2 -216 -1 -255 -6z"/>
<path d="M21525 10794 c-339 -61 -602 -257 -753 -559 -40 -80 -87 -232 -103
-330 -19 -116 -16 -361 5 -468 47 -241 151 -433 323 -598 166 -158 352 -246
592 -280 119 -17 362 -6 470 21 295 73 507 242 651 522 28 53 50 99 50 102 0
3 -80 6 -177 6 l-178 0 -30 -52 c-52 -90 -159 -189 -256 -237 -126 -61 -190
-75 -354 -75 -115 0 -154 4 -219 22 -209 60 -381 203 -480 399 -30 61 -76 213
-76 254 l0 29 920 0 920 0 0 103 c0 222 -41 412 -124 582 -150 305 -421 505
-757 560 -116 18 -317 18 -424 -1z m435 -304 c202 -57 369 -198 456 -386 33
-70 74 -202 74 -236 0 -17 -39 -18 -750 -18 -593 0 -750 3 -750 13 0 23 37
152 59 206 47 116 154 251 253 319 92 63 198 104 313 123 83 13 262 2 345 -21z"/>
<path d="M24072 10799 c-82 -14 -171 -47 -246 -91 -77 -45 -187 -151 -226
-216 -14 -23 -28 -42 -32 -42 -5 0 -8 74 -8 165 l0 165 -160 0 -160 0 0 -1100
0 -1100 160 0 159 0 3 723 c3 653 5 728 21 782 65 218 230 375 442 420 311 65
571 -96 662 -410 16 -54 18 -133 21 -787 l3 -728 159 0 159 0 3 723 c3 649 6
728 21 782 63 217 229 375 442 420 311 65 571 -96 662 -410 16 -54 18 -133 21
-787 l3 -728 160 0 160 0 -3 758 c-3 750 -4 758 -26 837 -126 450 -526 708
-960 619 -214 -44 -431 -190 -537 -363 -21 -33 -39 -61 -40 -61 -1 0 -20 30
-41 67 -48 82 -179 216 -256 262 -77 45 -165 79 -246 96 -73 16 -237 18 -320
4z"/>
<path d="M27595 10799 c-310 -42 -521 -181 -596 -394 -71 -202 -36 -426 85
-548 130 -130 295 -199 667 -281 273 -61 366 -88 474 -140 152 -74 199 -137
199 -266 -1 -200 -154 -309 -479 -341 -243 -23 -443 32 -571 156 -69 68 -99
127 -128 258 l-6 27 -167 0 -166 0 6 -63 c7 -80 54 -210 101 -281 20 -30 70
-86 111 -124 179 -171 418 -252 740 -252 557 0 884 241 885 652 0 156 -39 259
-136 354 -138 137 -292 200 -704 288 -218 47 -327 79 -430 127 -150 70 -197
138 -188 274 6 92 40 154 112 202 164 111 554 120 755 19 99 -50 160 -126 183
-225 l11 -51 164 0 c130 0 163 3 163 13 0 32 -41 169 -63 214 -90 177 -254
299 -483 359 -86 23 -124 27 -284 29 -102 2 -216 -1 -255 -6z"/>
<path d="M14880 10638 c32 -79 234 -567 448 -1085 l390 -942 -199 -448 -198
-448 171 -3 c94 -1 174 1 178 5 5 6 1115 2622 1287 3031 l13 32 -177 0 -178 0
-359 -900 c-198 -495 -362 -900 -365 -900 -3 0 -164 404 -358 898 l-351 897
-181 3 -180 2 59 -142z"/>
<path d="M3695 10075 c3 -22 10 -69 15 -105 4 -36 16 -105 25 -155 9 -49 21
-110 25 -135 9 -44 15 -75 41 -178 l12 -52 776 2 776 3 8 40 c17 89 27 133 43
200 18 78 29 143 43 255 5 41 14 94 19 118 6 23 9 42 8 42 0 0 -405 1 -899 3
l-899 2 7 -40z"/>
<path d="M11330 9258 c-179 -24 -339 -141 -417 -303 -42 -89 -57 -169 -50
-272 17 -237 184 -432 418 -488 262 -61 539 89 628 341 11 33 21 70 21 82 0
11 5 24 10 27 6 3 10 39 10 80 0 41 -4 77 -10 80 -5 3 -10 17 -10 30 0 23 -5
39 -38 115 -43 102 -156 216 -257 260 -79 34 -93 38 -151 45 -32 4 -66 8 -74
9 -8 2 -44 -1 -80 -6z"/>
<path d="M4117 8673 c87 -169 184 -331 292 -485 l55 -78 125 0 c113 0 127 2
136 19 6 10 42 65 81 122 92 135 176 277 247 417 l58 112 -525 0 -524 0 55
-107z"/>
<path d="M10305 8197 c-38 -28 -100 -71 -136 -96 -37 -25 -133 -93 -215 -150
-439 -307 -558 -391 -652 -458 l-103 -73 -854 0 -854 0 -7 -22 c-4 -13 -17
-45 -29 -73 -13 -27 -35 -79 -50 -114 -14 -34 -54 -121 -89 -192 l-62 -129
1033 0 c921 0 1037 2 1080 16 26 9 102 54 168 101 66 46 359 252 652 456 l532
372 -64 58 c-83 75 -175 190 -226 283 -22 41 -44 74 -47 73 -4 0 -38 -23 -77
-52z"/>
<path d="M26770 7405 l0 -215 175 0 175 0 0 215 0 215 -175 0 -175 0 0 -215z"/>
<path d="M13385 7545 c-180 -34 -373 -113 -535 -219 -172 -114 -374 -354 -469
-557 -168 -358 -192 -855 -60 -1251 158 -477 576 -832 1074 -914 133 -21 427
-14 561 14 276 59 554 237 709 455 22 31 43 57 48 57 4 0 7 -115 7 -255 l0
-255 145 0 145 0 0 775 0 775 -680 0 -680 0 0 -150 0 -150 535 0 536 0 -7 -67
c-9 -102 -22 -175 -45 -244 -78 -239 -261 -436 -513 -555 -296 -139 -700 -133
-1001 16 -379 188 -595 570 -595 1055 0 275 64 503 196 702 215 323 578 491
1019 470 138 -6 226 -23 347 -67 177 -64 362 -209 463 -364 l49 -76 173 0
c112 0 173 4 173 10 0 18 -51 112 -105 195 -198 302 -501 502 -887 587 -125
27 -483 35 -603 13z"/>
<path d="M16275 6834 c-339 -61 -602 -257 -753 -559 -40 -80 -87 -232 -103
-330 -19 -116 -16 -361 5 -468 47 -241 151 -433 323 -598 166 -158 352 -246
592 -280 119 -17 362 -6 470 21 295 73 507 242 651 522 28 53 50 99 50 102 0
3 -80 6 -177 6 l-178 0 -30 -52 c-52 -90 -159 -189 -256 -237 -126 -61 -190
-75 -354 -75 -115 0 -154 4 -219 22 -209 60 -381 203 -480 399 -30 61 -76 213
-76 254 l0 29 920 0 920 0 0 103 c0 222 -41 412 -124 582 -150 305 -421 505
-757 560 -116 18 -317 18 -424 -1z m435 -304 c202 -57 369 -198 456 -386 33
-70 74 -202 74 -236 0 -17 -39 -18 -750 -18 -593 0 -750 3 -750 13 0 23 37
152 59 206 47 116 154 251 253 319 92 63 198 104 313 123 83 13 262 2 345 -21z"/>
<path d="M18835 6836 c-86 -20 -158 -51 -234 -100 -86 -55 -196 -151 -241
-210 -19 -25 -38 -45 -42 -46 -5 0 -8 77 -8 170 l0 170 -160 0 -160 0 0 -1100
0 -1100 160 0 160 0 0 653 c0 379 5 681 10 721 46 316 292 542 613 563 312 20
555 -151 643 -452 16 -54 18 -127 21 -772 l4 -713 159 0 160 0 0 704 c0 763
-2 796 -56 948 -51 142 -120 244 -244 361 -66 62 -103 88 -184 127 -55 26
-135 56 -176 66 -101 23 -344 28 -425 10z"/>
<path d="M21215 6834 c-185 -34 -336 -100 -472 -209 -162 -130 -274 -296 -341
-505 -42 -132 -56 -231 -56 -400 0 -169 14 -268 56 -400 88 -275 266 -490 509
-614 204 -104 475 -142 728 -101 474 77 808 442 870 950 70 572 -215 1076
-700 1239 -161 54 -419 71 -594 40z m365 -288 c245 -45 420 -183 530 -420 58
-122 80 -237 80 -406 0 -168 -22 -285 -78 -403 -93 -199 -220 -321 -401 -387
-146 -53 -337 -63 -486 -25 -246 63 -438 258 -522 532 -25 83 -27 99 -27 283
0 184 2 200 27 283 124 403 469 617 877 543z"/>
<path d="M23792 6839 c-82 -14 -171 -47 -246 -91 -77 -45 -187 -151 -226 -216
-14 -23 -28 -42 -32 -42 -5 0 -8 74 -8 165 l0 165 -160 0 -160 0 0 -1100 0
-1100 160 0 159 0 3 723 c3 653 5 728 21 782 65 218 230 375 442 420 311 65
571 -96 662 -410 16 -54 18 -133 21 -787 l3 -728 159 0 159 0 3 723 c3 649 6
728 21 782 63 217 229 375 442 420 311 65 571 -96 662 -410 16 -54 18 -133 21
-787 l3 -728 160 0 160 0 -3 758 c-3 750 -4 758 -26 837 -126 450 -526 708
-960 619 -214 -44 -431 -190 -537 -363 -21 -33 -39 -61 -40 -61 -1 0 -20 30
-41 67 -48 82 -179 216 -256 262 -77 45 -165 79 -246 96 -73 16 -237 18 -320
4z"/>
<path d="M28436 6840 c-230 -37 -424 -137 -583 -303 -212 -222 -307 -474 -307
-817 0 -344 95 -595 309 -818 135 -142 297 -235 492 -284 75 -19 115 -22 278
-22 162 0 203 3 277 22 209 52 362 135 499 272 115 113 175 205 238 368 l21
52 -178 -1 -177 0 -33 -69 c-40 -83 -147 -202 -235 -260 -34 -22 -98 -53 -142
-67 -72 -24 -94 -27 -220 -26 -165 1 -252 20 -385 84 -71 35 -101 58 -180 138
-77 77 -105 113 -142 187 -78 150 -93 219 -93 424 0 205 15 274 93 424 64 126
200 263 319 325 128 65 211 83 383 85 138 1 149 -1 230 -30 47 -16 111 -47
143 -68 84 -56 190 -175 229 -256 l33 -69 177 0 178 -1 -21 53 c-63 162 -123
254 -238 367 -135 135 -280 215 -480 267 -79 21 -125 26 -261 28 -91 2 -192 0
-224 -5z"/>
<path d="M30595 6839 c-310 -42 -521 -181 -596 -394 -71 -202 -36 -426 85
-548 130 -130 295 -199 667 -281 273 -61 366 -88 474 -140 152 -74 199 -137
199 -266 -1 -200 -154 -309 -479 -341 -243 -23 -443 32 -571 156 -69 68 -99
127 -128 258 l-6 27 -167 0 -166 0 6 -63 c7 -80 54 -210 101 -281 20 -30 70
-86 111 -124 179 -171 418 -252 740 -252 557 0 884 241 885 652 0 156 -39 259
-136 354 -138 137 -292 200 -704 288 -218 47 -327 79 -430 127 -150 70 -197
138 -188 274 6 92 40 154 112 202 164 111 554 120 755 19 99 -50 160 -126 183
-225 l11 -51 164 0 c130 0 163 3 163 13 0 32 -41 169 -63 214 -90 177 -254
299 -483 359 -86 23 -124 27 -284 29 -102 2 -216 -1 -255 -6z"/>
<path d="M26780 5720 l0 -1100 160 0 160 0 0 1100 0 1100 -160 0 -160 0 0
-1100z"/>
<path d="M11305 6394 c-54 -9 -149 -46 -200 -79 -92 -59 -172 -160 -217 -277
-26 -66 -32 -271 -10 -328 74 -191 197 -316 361 -367 86 -26 247 -24 335 5
103 35 187 94 254 179 40 51 102 183 102 217 0 14 5 28 10 31 6 3 10 42 10 85
0 43 -4 82 -10 85 -5 3 -10 17 -10 30 0 41 -41 133 -92 207 -60 85 -166 161
-278 198 -38 12 -206 21 -255 14z"/>
<path d="M6679 6013 c-52 -64 -100 -125 -107 -135 -12 -17 -2 -32 95 -153
l108 -135 1766 0 c971 0 1769 3 1772 6 3 4 2 14 -3 24 -5 9 -15 67 -22 129 -9
88 -9 134 0 221 7 60 17 121 22 135 l10 25 -1774 0 -1773 0 -94 -117z"/>
<path d="M2975 5513 c-200 -249 -431 -589 -570 -838 -61 -109 -195 -375 -235
-465 -23 -52 -55 -123 -71 -158 -16 -35 -29 -66 -29 -70 0 -6 -52 -139 -81
-207 -16 -39 -120 -359 -140 -434 -32 -117 -75 -290 -89 -356 -7 -33 -17 -76
-22 -95 -11 -43 -26 -124 -38 -205 -5 -33 -16 -105 -25 -160 -22 -133 -32
-237 -44 -435 -6 -91 -15 -232 -21 -315 -5 -82 -10 -403 -10 -711 0 -482 2
-569 16 -615 45 -155 118 -228 273 -273 44 -13 115 -16 404 -16 357 0 411 5
497 43 73 33 154 125 182 207 9 25 14 256 19 830 6 750 11 876 38 1048 6 34
15 95 21 135 27 177 70 367 127 557 72 237 119 367 205 569 30 71 189 390 228
459 110 193 309 480 477 690 21 26 24 38 17 50 -6 9 -111 92 -235 184 -377
282 -583 448 -749 605 -37 34 -69 63 -71 63 -2 0 -36 -39 -74 -87z"/>
<path d="M7252 4833 c2 -5 33 -69 69 -143 36 -74 90 -192 120 -262 l54 -128
853 0 853 0 80 -57 c45 -32 91 -65 102 -73 23 -16 384 -267 453 -316 23 -16
115 -80 205 -143 90 -63 200 -140 244 -171 44 -31 85 -60 91 -63 7 -4 22 14
39 47 41 82 146 215 229 293 l75 70 -235 164 c-129 90 -302 211 -385 269 -518
364 -696 485 -733 499 -36 14 -157 16 -1079 19 -572 1 -1037 -1 -1035 -5z"/>
<path d="M4410 3903 c-110 -158 -206 -316 -293 -485 l-55 -108 524 0 c288 0
524 4 524 8 0 4 -4 12 -9 18 -5 5 -30 52 -57 104 -62 122 -149 270 -226 385
-34 49 -71 104 -82 122 l-21 32 -125 1 -126 0 -54 -77z"/>
<path d="M26400 3585 l0 -215 175 0 175 0 0 215 0 215 -175 0 -175 0 0 -215z"/>
<path d="M27820 3390 l0 -390 -225 0 -225 0 0 -145 0 -145 225 0 225 0 0 -955
0 -955 160 0 160 0 0 955 0 955 255 0 255 0 0 145 0 145 -255 0 -255 0 0 390
0 390 -160 0 -160 0 0 -390z"/>
<path d="M13310 3734 c-422 -52 -693 -230 -801 -524 -68 -188 -61 -398 19
-555 30 -60 134 -166 221 -224 144 -98 382 -190 664 -257 453 -108 610 -155
767 -232 142 -68 226 -145 254 -229 20 -61 23 -191 5 -256 -38 -141 -140 -245
-303 -308 -261 -101 -735 -98 -1010 5 -102 39 -171 81 -247 154 -84 78 -141
183 -159 291 l-12 71 -168 0 -167 0 13 -83 c62 -389 305 -648 709 -755 150
-40 257 -54 465 -59 308 -8 536 26 733 112 125 54 186 94 278 185 133 132 191
267 205 480 20 290 -112 496 -416 654 -146 76 -284 120 -741 236 -227 58 -430
115 -493 140 -174 68 -291 158 -331 254 -30 72 -13 232 35 326 62 122 245 226
466 265 112 19 360 20 479 0 327 -53 532 -211 586 -452 l12 -53 165 0 165 0
-6 63 c-28 300 -272 571 -619 687 -147 50 -240 62 -493 65 -132 2 -256 1 -275
-1z"/>
<path d="M11300 3534 c-38 -7 -78 -23 -150 -57 -119 -56 -224 -185 -272 -332
-19 -59 -16 -238 5 -305 49 -159 172 -287 338 -352 45 -17 76 -21 179 -22 108
0 133 3 185 24 111 43 202 113 264 203 35 51 81 161 81 193 0 13 5 26 10 29 6
3 10 42 10 85 0 43 -4 82 -10 85 -5 3 -10 17 -10 29 0 32 -37 120 -75 181 -59
94 -159 173 -270 215 -59 22 -223 36 -285 24z"/>
<path d="M19082 3019 c-82 -14 -171 -47 -246 -91 -77 -45 -187 -151 -226 -216
-14 -23 -28 -42 -32 -42 -5 0 -8 74 -8 165 l0 165 -160 0 -160 0 0 -1100 0
-1100 160 0 159 0 3 723 c3 653 5 728 21 782 65 218 230 375 442 420 311 65
571 -96 662 -410 16 -54 18 -133 21 -787 l3 -728 159 0 159 0 3 723 c3 649 6
728 21 782 63 217 229 375 442 420 311 65 571 -96 662 -410 16 -54 18 -133 21
-787 l3 -728 160 0 160 0 -3 758 c-3 750 -4 758 -26 837 -126 450 -526 708
-960 619 -214 -44 -431 -190 -537 -363 -21 -33 -39 -61 -40 -61 -1 0 -20 30
-41 67 -48 82 -179 216 -256 262 -77 45 -165 79 -246 96 -73 16 -237 18 -320
4z"/>
<path d="M23162 3019 c-82 -14 -171 -47 -246 -91 -77 -45 -187 -151 -226 -216
-14 -23 -28 -42 -32 -42 -5 0 -8 74 -8 165 l0 165 -160 0 -160 0 0 -1100 0
-1100 160 0 159 0 3 723 c3 653 5 728 21 782 65 218 230 375 442 420 311 65
571 -96 662 -410 16 -54 18 -133 21 -787 l3 -728 159 0 159 0 3 723 c3 649 6
728 21 782 63 217 229 375 442 420 311 65 571 -96 662 -410 16 -54 18 -133 21
-787 l3 -728 160 0 160 0 -3 758 c-3 750 -4 758 -26 837 -126 450 -526 708
-960 619 -214 -44 -431 -190 -537 -363 -21 -33 -39 -61 -40 -61 -1 0 -20 30
-41 67 -48 82 -179 216 -256 262 -77 45 -165 79 -246 96 -73 16 -237 18 -320
4z"/>
<path d="M15473 2263 c3 -722 3 -740 25 -820 48 -184 130 -322 268 -452 70
-66 105 -91 187 -131 143 -68 225 -85 422 -85 150 0 166 2 249 29 134 44 322
178 406 289 19 26 38 47 43 47 4 0 7 -76 7 -170 l0 -170 160 0 160 0 0 1100 0
1100 -159 0 -160 0 -4 -697 c-3 -630 -5 -704 -21 -758 -81 -278 -311 -463
-599 -482 -277 -17 -515 124 -612 364 -52 130 -55 179 -55 904 l0 669 -160 0
-161 0 4 -737z"/>
<path d="M26410 1900 l0 -1100 160 0 160 0 0 1100 0 1100 -160 0 -160 0 0
-1100z"/>
<path d="M3801 2588 c-36 -146 -77 -357 -91 -468 -5 -36 -12 -83 -15 -105 l-7
-40 899 2 c494 2 899 3 899 3 1 0 -2 19 -8 43 -5 23 -14 76 -19 117 -14 117
-25 179 -44 260 -17 75 -27 119 -42 195 l-8 40 -776 3 -776 2 -12 -52z"/>
<path d="M29290 2183 c-66 -11 -156 -49 -209 -88 -87 -64 -133 -133 -157 -233
l-12 -53 75 3 75 3 13 38 c44 127 146 187 320 187 115 0 184 -22 237 -77 49
-50 68 -99 68 -174 0 -130 -72 -207 -410 -441 -126 -88 -209 -160 -268 -234
-64 -81 -84 -131 -90 -231 l-5 -83 462 0 461 0 0 75 0 75 -371 0 -370 0 7 23
c26 84 101 153 394 357 124 87 263 224 305 300 28 52 30 62 30 165 0 92 -4
118 -22 157 -27 59 -101 139 -159 173 -86 51 -259 77 -374 58z"/>
<path d="M30433 2175 c-124 -34 -209 -106 -266 -226 -64 -136 -94 -330 -82
-540 17 -320 116 -520 293 -591 49 -20 75 -23 187 -23 125 0 133 1 195 31 190
90 280 306 280 669 -1 401 -128 631 -378 684 -71 15 -165 13 -229 -4z m257
-156 c86 -39 139 -115 176 -254 26 -97 27 -446 1 -548 -33 -133 -87 -211 -175
-254 -112 -55 -269 -30 -344 55 -90 103 -135 353 -109 609 24 232 87 353 209
398 59 22 188 18 242 -6z"/>
<path d="M31630 2183 c-66 -11 -156 -49 -209 -88 -87 -64 -133 -133 -157 -233
l-12 -53 75 3 75 3 13 38 c44 127 146 187 320 187 115 0 184 -22 237 -77 49
-50 68 -99 68 -174 0 -130 -72 -207 -410 -441 -126 -88 -209 -160 -268 -234
-64 -81 -84 -131 -90 -231 l-5 -83 462 0 461 0 0 75 0 75 -371 0 -370 0 7 23
c26 84 101 153 394 357 124 87 263 224 305 300 28 52 30 62 30 165 0 92 -4
118 -22 157 -27 59 -101 139 -159 173 -86 51 -259 77 -374 58z"/>
<path d="M32600 2100 l0 -69 148 -3 147 -3 3 -612 2 -613 70 0 70 0 0 685 0
685 -220 0 -220 0 0 -70z"/>
<path d="M3670 975 l0 -335 920 0 920 0 0 335 0 335 -920 0 -920 0 0 -335z"/>
</g>
</svg>
